<mxfile host="app.diagrams.net" modified="2022-02-20T07:19:12.274Z" agent="5.0 (Windows NT 6.3; Win64; x64) AppleWebKit/537.36 (KHTML, like Gecko) Chrome/98.0.4758.102 Safari/537.36" etag="SWXP4XAb851CGMa1e5qV" version="16.6.1" type="github">
  <diagram name="Page-1" id="12e1b939-464a-85fe-373e-61e167be1490">
    <mxGraphModel dx="1483" dy="-410" grid="1" gridSize="10" guides="1" tooltips="1" connect="1" arrows="1" fold="1" page="1" pageScale="1.5" pageWidth="1169" pageHeight="826" background="none" math="0" shadow="0">
      <root>
        <mxCell id="0" />
        <mxCell id="1" parent="0" />
        <mxCell id="G_LGBWY3P7igez-pF-BB-33" value="" style="rounded=0;whiteSpace=wrap;html=1;dashed=1;fillColor=#E6FFCC;strokeColor=#6c8ebf;" parent="1" vertex="1">
          <mxGeometry x="740" y="1760" width="140" height="300" as="geometry" />
        </mxCell>
        <mxCell id="G_LGBWY3P7igez-pF-BB-2" value="" style="rounded=0;whiteSpace=wrap;html=1;dashed=1;fillColor=#E6FFCC;strokeColor=#6c8ebf;" parent="1" vertex="1">
          <mxGeometry x="570" y="1760" width="140" height="300" as="geometry" />
        </mxCell>
        <mxCell id="G_LGBWY3P7igez-pF-BB-3" value="" style="rounded=0;whiteSpace=wrap;html=1;dashed=1;fillColor=#E6FFCC;strokeColor=#6c8ebf;" parent="1" vertex="1">
          <mxGeometry x="400" y="1760" width="140" height="300" as="geometry" />
        </mxCell>
        <mxCell id="G_LGBWY3P7igez-pF-BB-1" value="&lt;font style=&quot;font-size: 14px&quot;&gt;全局EC&amp;nbsp;存储池&lt;/font&gt;" style="rounded=0;whiteSpace=wrap;html=1;fillColor=#66FFFF;strokeColor=#36393d;" parent="1" vertex="1">
          <mxGeometry x="360" y="1850" width="560" height="130" as="geometry" />
        </mxCell>
        <mxCell id="G_LGBWY3P7igez-pF-BB-5" value="" style="verticalLabelPosition=bottom;html=1;verticalAlign=top;align=center;strokeColor=none;fillColor=#00BEF2;shape=mxgraph.azure.vhd;pointerEvents=1;" parent="1" vertex="1">
          <mxGeometry x="416.5" y="1860" width="43.5" height="50" as="geometry" />
        </mxCell>
        <mxCell id="G_LGBWY3P7igez-pF-BB-6" value="" style="verticalLabelPosition=bottom;html=1;verticalAlign=top;align=center;strokeColor=none;fillColor=#00BEF2;shape=mxgraph.azure.vhd;pointerEvents=1;" parent="1" vertex="1">
          <mxGeometry x="480" y="1860" width="40" height="50" as="geometry" />
        </mxCell>
        <mxCell id="G_LGBWY3P7igez-pF-BB-9" value="" style="verticalLabelPosition=bottom;html=1;verticalAlign=top;align=center;strokeColor=none;fillColor=#00BEF2;shape=mxgraph.azure.vhd;pointerEvents=1;" parent="1" vertex="1">
          <mxGeometry x="416.5" y="1924.75" width="40" height="50" as="geometry" />
        </mxCell>
        <mxCell id="G_LGBWY3P7igez-pF-BB-10" value="" style="verticalLabelPosition=bottom;html=1;verticalAlign=top;align=center;strokeColor=none;fillColor=#00BEF2;shape=mxgraph.azure.vhd;pointerEvents=1;" parent="1" vertex="1">
          <mxGeometry x="480" y="1924.75" width="40" height="50" as="geometry" />
        </mxCell>
        <mxCell id="G_LGBWY3P7igez-pF-BB-12" value="" style="verticalLabelPosition=bottom;html=1;verticalAlign=top;align=center;strokeColor=none;fillColor=#00BEF2;shape=mxgraph.azure.vhd;pointerEvents=1;" parent="1" vertex="1">
          <mxGeometry x="590" y="1860" width="40" height="50" as="geometry" />
        </mxCell>
        <mxCell id="G_LGBWY3P7igez-pF-BB-13" value="" style="verticalLabelPosition=bottom;html=1;verticalAlign=top;align=center;strokeColor=none;fillColor=#00BEF2;shape=mxgraph.azure.vhd;pointerEvents=1;" parent="1" vertex="1">
          <mxGeometry x="646.5" y="1860" width="40" height="50" as="geometry" />
        </mxCell>
        <mxCell id="G_LGBWY3P7igez-pF-BB-16" value="" style="verticalLabelPosition=bottom;html=1;verticalAlign=top;align=center;strokeColor=none;fillColor=#00BEF2;shape=mxgraph.azure.vhd;pointerEvents=1;" parent="1" vertex="1">
          <mxGeometry x="590" y="1924.75" width="40" height="50" as="geometry" />
        </mxCell>
        <mxCell id="G_LGBWY3P7igez-pF-BB-17" value="" style="verticalLabelPosition=bottom;html=1;verticalAlign=top;align=center;strokeColor=none;fillColor=#00BEF2;shape=mxgraph.azure.vhd;pointerEvents=1;" parent="1" vertex="1">
          <mxGeometry x="646.5" y="1924.75" width="40" height="50" as="geometry" />
        </mxCell>
        <mxCell id="G_LGBWY3P7igez-pF-BB-20" value="&lt;font style=&quot;font-size: 18px&quot;&gt;Node 1&lt;/font&gt;" style="image;html=1;image=img/lib/clip_art/computers/Server_128x128.png" parent="1" vertex="1">
          <mxGeometry x="414.5" y="1980" width="110" height="80" as="geometry" />
        </mxCell>
        <mxCell id="G_LGBWY3P7igez-pF-BB-21" value="&lt;font style=&quot;font-size: 18px&quot;&gt;Node 2&lt;/font&gt;" style="image;html=1;image=img/lib/clip_art/computers/Server_128x128.png" parent="1" vertex="1">
          <mxGeometry x="585" y="1980" width="110" height="80" as="geometry" />
        </mxCell>
        <mxCell id="G_LGBWY3P7igez-pF-BB-34" value="" style="verticalLabelPosition=bottom;html=1;verticalAlign=top;align=center;strokeColor=none;fillColor=#00BEF2;shape=mxgraph.azure.vhd;pointerEvents=1;" parent="1" vertex="1">
          <mxGeometry x="760" y="1860" width="40" height="50" as="geometry" />
        </mxCell>
        <mxCell id="G_LGBWY3P7igez-pF-BB-35" value="" style="verticalLabelPosition=bottom;html=1;verticalAlign=top;align=center;strokeColor=none;fillColor=#00BEF2;shape=mxgraph.azure.vhd;pointerEvents=1;" parent="1" vertex="1">
          <mxGeometry x="816.5" y="1860" width="40" height="50" as="geometry" />
        </mxCell>
        <mxCell id="G_LGBWY3P7igez-pF-BB-36" value="" style="verticalLabelPosition=bottom;html=1;verticalAlign=top;align=center;strokeColor=none;fillColor=#00BEF2;shape=mxgraph.azure.vhd;pointerEvents=1;" parent="1" vertex="1">
          <mxGeometry x="760" y="1924.75" width="40" height="50" as="geometry" />
        </mxCell>
        <mxCell id="G_LGBWY3P7igez-pF-BB-37" value="" style="verticalLabelPosition=bottom;html=1;verticalAlign=top;align=center;strokeColor=none;fillColor=#00BEF2;shape=mxgraph.azure.vhd;pointerEvents=1;" parent="1" vertex="1">
          <mxGeometry x="816.5" y="1924.75" width="40" height="50" as="geometry" />
        </mxCell>
        <mxCell id="G_LGBWY3P7igez-pF-BB-38" value="&lt;font style=&quot;font-size: 18px&quot;&gt;Node 3&lt;/font&gt;" style="image;html=1;image=img/lib/clip_art/computers/Server_128x128.png" parent="1" vertex="1">
          <mxGeometry x="755" y="1980" width="110" height="80" as="geometry" />
        </mxCell>
        <mxCell id="27UJlqdlfSyC3q4ohHWZ-4" style="edgeStyle=orthogonalEdgeStyle;rounded=0;orthogonalLoop=1;jettySize=auto;html=1;exitX=0.5;exitY=1;exitDx=0;exitDy=0;fontSize=14;strokeColor=#FF00FF;strokeWidth=2;" edge="1" source="27UJlqdlfSyC3q4ohHWZ-5" target="27UJlqdlfSyC3q4ohHWZ-6" parent="1">
          <mxGeometry relative="1" as="geometry" />
        </mxCell>
        <mxCell id="27UJlqdlfSyC3q4ohHWZ-5" value="&lt;font style=&quot;font-size: 14px&quot;&gt;Sonia&lt;/font&gt;" style="rounded=1;whiteSpace=wrap;html=1;fillColor=#FF9999;" vertex="1" parent="1">
          <mxGeometry x="424.5" y="1770" width="90" height="25" as="geometry" />
        </mxCell>
        <mxCell id="27UJlqdlfSyC3q4ohHWZ-6" value="OSD" style="rounded=1;whiteSpace=wrap;html=1;fillColor=#66FFFF;fontSize=14;" vertex="1" parent="1">
          <mxGeometry x="424.5" y="1819.75" width="90" height="25" as="geometry" />
        </mxCell>
        <mxCell id="27UJlqdlfSyC3q4ohHWZ-10" value="对象读写" style="text;html=1;strokeColor=none;fillColor=none;align=center;verticalAlign=middle;whiteSpace=wrap;rounded=0;fontSize=14;" vertex="1" parent="1">
          <mxGeometry x="408.25" y="1795" width="60" height="30" as="geometry" />
        </mxCell>
        <mxCell id="27UJlqdlfSyC3q4ohHWZ-12" value="" style="edgeStyle=elbowEdgeStyle;elbow=horizontal;endArrow=classic;html=1;rounded=0;fontSize=14;exitX=0.5;exitY=1;exitDx=0;exitDy=0;" edge="1" parent="1" source="27UJlqdlfSyC3q4ohHWZ-6">
          <mxGeometry width="50" height="50" relative="1" as="geometry">
            <mxPoint x="180" y="2090" as="sourcePoint" />
            <mxPoint x="480" y="1885" as="targetPoint" />
            <Array as="points">
              <mxPoint x="470" y="1870" />
            </Array>
          </mxGeometry>
        </mxCell>
        <mxCell id="27UJlqdlfSyC3q4ohHWZ-13" value="" style="edgeStyle=elbowEdgeStyle;elbow=horizontal;endArrow=classic;html=1;rounded=0;fontSize=14;exitX=1;exitY=0.5;exitDx=0;exitDy=0;entryX=0;entryY=0.5;entryDx=0;entryDy=0;entryPerimeter=0;" edge="1" parent="1" source="27UJlqdlfSyC3q4ohHWZ-6" target="G_LGBWY3P7igez-pF-BB-16">
          <mxGeometry width="50" height="50" relative="1" as="geometry">
            <mxPoint x="430" y="2200" as="sourcePoint" />
            <mxPoint x="480" y="2150" as="targetPoint" />
          </mxGeometry>
        </mxCell>
        <mxCell id="27UJlqdlfSyC3q4ohHWZ-14" value="" style="edgeStyle=elbowEdgeStyle;elbow=horizontal;endArrow=classic;html=1;rounded=0;fontSize=14;entryX=0;entryY=0.5;entryDx=0;entryDy=0;entryPerimeter=0;exitX=1;exitY=0.5;exitDx=0;exitDy=0;" edge="1" parent="1" source="27UJlqdlfSyC3q4ohHWZ-6" target="G_LGBWY3P7igez-pF-BB-34">
          <mxGeometry width="50" height="50" relative="1" as="geometry">
            <mxPoint x="510" y="1830" as="sourcePoint" />
            <mxPoint x="730" y="2160" as="targetPoint" />
            <Array as="points">
              <mxPoint x="580" y="1860" />
            </Array>
          </mxGeometry>
        </mxCell>
        <mxCell id="27UJlqdlfSyC3q4ohHWZ-16" value="&lt;font style=&quot;font-size: 14px&quot;&gt;Sonia&lt;/font&gt;" style="rounded=1;whiteSpace=wrap;html=1;fillColor=#FF9999;" vertex="1" parent="1">
          <mxGeometry x="590" y="1770" width="90" height="25" as="geometry" />
        </mxCell>
        <mxCell id="27UJlqdlfSyC3q4ohHWZ-17" value="OSD" style="rounded=1;whiteSpace=wrap;html=1;fillColor=#66FFFF;fontSize=14;" vertex="1" parent="1">
          <mxGeometry x="590" y="1819.75" width="90" height="25" as="geometry" />
        </mxCell>
        <mxCell id="27UJlqdlfSyC3q4ohHWZ-19" value="&lt;font style=&quot;font-size: 14px&quot;&gt;Sonia&lt;/font&gt;" style="rounded=1;whiteSpace=wrap;html=1;fillColor=#FF9999;" vertex="1" parent="1">
          <mxGeometry x="765" y="1770" width="90" height="25" as="geometry" />
        </mxCell>
        <mxCell id="27UJlqdlfSyC3q4ohHWZ-20" value="OSD" style="rounded=1;whiteSpace=wrap;html=1;fillColor=#66FFFF;fontSize=14;" vertex="1" parent="1">
          <mxGeometry x="765" y="1819.75" width="90" height="25" as="geometry" />
        </mxCell>
        <mxCell id="27UJlqdlfSyC3q4ohHWZ-23" style="edgeStyle=orthogonalEdgeStyle;rounded=0;orthogonalLoop=1;jettySize=auto;html=1;exitX=0.5;exitY=1;exitDx=0;exitDy=0;fontSize=14;strokeColor=#FF00FF;strokeWidth=2;" edge="1" parent="1">
          <mxGeometry relative="1" as="geometry">
            <mxPoint x="631.5714285714287" y="1796" as="sourcePoint" />
            <mxPoint x="631.5714285714287" y="1820.75" as="targetPoint" />
          </mxGeometry>
        </mxCell>
        <mxCell id="27UJlqdlfSyC3q4ohHWZ-24" style="edgeStyle=orthogonalEdgeStyle;rounded=0;orthogonalLoop=1;jettySize=auto;html=1;exitX=0.5;exitY=1;exitDx=0;exitDy=0;fontSize=14;strokeColor=#FF00FF;strokeWidth=2;" edge="1" parent="1">
          <mxGeometry relative="1" as="geometry">
            <mxPoint x="810.5714285714287" y="1796" as="sourcePoint" />
            <mxPoint x="810.5714285714287" y="1820.75" as="targetPoint" />
          </mxGeometry>
        </mxCell>
      </root>
    </mxGraphModel>
  </diagram>
</mxfile>
